<svg viewBox="0 0 240 220" xmlns="http://www.w3.org/2000/svg"><path d="M 106.03 183.25 L 104.33 182.39 L 102.65 181.54 L 100.98 180.71 L 99.32 179.94 L 97.66 179.25 L 95.97 178.64 L 94.25 178.13 L 92.49 177.72 L 90.69 177.41 L 88.82 177.19 L 86.89 177.05 L 84.89 176.97 L 82.84 176.94 L 80.72 176.92 L 78.57 176.89 L 76.38 176.83 L 74.17 176.70 L 71.96 176.48 L 69.77 176.15 L 67.62 175.70 L 65.52 175.10 L 63.50 174.35 L 61.57 173.44 L 59.74 172.38 L 58.03 171.18 L 56.42 169.84 L 54.93 168.37 L 53.54 166.81 L 52.25 165.17 L 51.03 163.46 L 49.88 161.72 L 48.76 159.97 L 47.65 158.21 L 46.53 156.48 L 45.38 154.77 L 44.16 153.11 L 42.87 151.48 L 41.48 149.90 L 39.99 148.35 L 38.40 146.83 L 36.70 145.32 L 34.91 143.82 L 33.05 142.29 L 31.13 140.74 L 29.19 139.14 L 27.25 137.48 L 25.36 135.74 L 23.55 133.91 L 21.85 132.00 L 20.31 130.00 L 18.95 127.90 L 17.81 125.72 L 16.89 123.47 L 16.22 121.15 L 15.80 118.79 L 15.62 116.39 L 15.69 113.97 L 15.97 111.56 L 16.44 109.15 L 17.08 106.76 L 17.85 104.41 L 18.72 102.10 L 19.63 99.82 L 20.57 97.58 L 21.50 95.38 L 22.38 93.21 L 23.19 91.06 L 23.93 88.92 L 24.57 86.78 L 25.12 84.63 L 25.59 82.47 L 25.98 80.29 L 26.32 78.09 L 26.64 75.87 L 26.95 73.63 L 27.30 71.38 L 27.70 69.14 L 28.20 66.91 L 28.82 64.72 L 29.59 62.58 L 30.52 60.51 L 31.62 58.52 L 32.91 56.64 L 34.39 54.88 L 36.03 53.24 L 37.85 51.74 L 39.80 50.38 L 41.88 49.15 L 44.06 48.04 L 46.31 47.06 L 48.59 46.18 L 50.89 45.37 L 53.17 44.63 L 55.41 43.93 L 57.59 43.24 L 59.69 42.54 L 61.70 41.82 L 63.62 41.04 L 65.44 40.21 L 67.18 39.30 L 68.83 38.32 L 70.41 37.27 L 71.94 36.14 L 73.42 34.95 L 74.89 33.72 L 76.36 32.46 L 77.84 31.20 L 79.35 29.96 L 80.90 28.77 L 82.51 27.65 L 84.17 26.63 L 85.90 25.72 L 87.69 24.96 L 89.54 24.34 L 91.45 23.88 L 93.39 23.58 L 95.37 23.43 L 97.37 23.44 L 99.37 23.58 L 101.38 23.83 L 103.37 24.18 L 105.34 24.60 L 107.28 25.05 L 109.19 25.52 L 111.06 25.97 L 112.89 26.38 L 114.70 26.72 L 116.48 26.98 L 118.25 27.15 L 120.00 27.20 L 121.75 27.15 L 123.52 26.98 L 125.30 26.72 L 127.11 26.38 L 128.94 25.97 L 130.81 25.52 L 132.72 25.05 L 134.66 24.60 L 136.63 24.18 L 138.62 23.83 L 140.63 23.58 L 142.63 23.44 L 144.63 23.43 L 146.61 23.58 L 148.55 23.88 L 150.46 24.34 L 152.31 24.96 L 154.10 25.72 L 155.83 26.63 L 157.49 27.65 L 159.10 28.77 L 160.65 29.96 L 162.16 31.20 L 163.64 32.46 L 165.11 33.72 L 166.58 34.95 L 168.06 36.14 L 169.59 37.27 L 171.17 38.32 L 172.82 39.30 L 174.56 40.21 L 176.38 41.04 L 178.30 41.82 L 180.31 42.54 L 182.41 43.24 L 184.59 43.93 L 186.83 44.63 L 189.11 45.37 L 191.41 46.18 L 193.69 47.06 L 195.94 48.04 L 198.12 49.15 L 200.20 50.38 L 202.15 51.74 L 203.97 53.24 L 205.61 54.88 L 207.09 56.64 L 208.38 58.52 L 209.48 60.51 L 210.41 62.58 L 211.18 64.72 L 211.80 66.91 L 212.30 69.14 L 212.70 71.38 L 213.05 73.63 L 213.36 75.87 L 213.68 78.09 L 214.02 80.29 L 214.41 82.47 L 214.88 84.63 L 215.43 86.78 L 216.07 88.92 L 216.81 91.06 L 217.62 93.21 L 218.50 95.38 L 219.43 97.58 L 220.37 99.82 L 221.28 102.10 L 222.15 104.41 L 222.92 106.76 L 223.56 109.15 L 224.03 111.56 L 224.31 113.97 L 224.38 116.39 L 224.20 118.79 L 223.78 121.15 L 223.11 123.47 L 222.19 125.72 L 221.05 127.90 L 219.69 130.00 L 218.15 132.00 L 216.45 133.91 L 214.64 135.74 L 212.75 137.48 L 210.81 139.14 L 208.87 140.74 L 206.95 142.29 L 205.09 143.82 L 203.30 145.32 L 201.60 146.83 L 200.01 148.35 L 198.52 149.90 L 197.13 151.48 L 195.84 153.11 L 194.62 154.77 L 193.47 156.48 L 192.35 158.21 L 191.24 159.97 L 190.12 161.72 L 188.97 163.46 L 187.75 165.17 L 186.46 166.81 L 185.07 168.37 L 183.58 169.84 L 181.97 171.18 L 180.26 172.38 L 178.43 173.44 L 176.50 174.35 L 174.48 175.10 L 172.38 175.70 L 170.23 176.15 L 168.04 176.48 L 165.83 176.70 L 163.62 176.83 L 161.43 176.89 L 159.28 176.92 L 157.16 176.94 L 155.11 176.97 L 153.11 177.05 L 151.18 177.19 L 149.31 177.41 L 147.51 177.72 L 145.75 178.13 L 144.03 178.64 L 142.34 179.25 L 140.68 179.94 L 139.02 180.71 L 137.35 181.54 L 135.67 182.39 L 133.97 183.25 C 127.69 177.98 123.20 168.62 123.20 154.00 Q 120.00 158.80 116.80 154.00 C 116.80 168.62 112.31 177.98 106.03 183.25 Z" fill="#54624E"/><path d="M 120.00 152.00 C 119.18 152.58 116.76 154.42 115.06 155.47 C 113.36 156.52 111.60 157.42 109.81 158.28 C 108.03 159.14 106.14 159.77 104.35 160.63 C 102.57 161.49 100.81 162.42 99.10 163.44 C 97.39 164.46 95.80 165.73 94.09 166.75 C 92.38 167.77 90.68 168.81 88.84 169.57 C 87.01 170.32 85.04 170.78 83.10 171.30 C 81.15 171.81 79.11 172.11 77.17 172.63 C 75.23 173.16 72.41 174.12 71.45 174.42 " fill="none" stroke="#F3EFE6" stroke-width="3.40" stroke-linecap="round" stroke-linejoin="round"/><path d="M 120.00 152.00 C 118.98 151.93 115.91 151.72 113.86 151.61 C 111.82 151.50 109.76 151.41 107.71 151.35 C 105.65 151.29 103.58 151.28 101.52 151.27 C 99.45 151.26 97.38 151.31 95.31 151.30 C 93.24 151.29 91.18 151.30 89.12 151.22 C 87.07 151.14 85.02 151.03 82.99 150.81 C 80.96 150.59 78.94 150.29 76.94 149.90 C 74.94 149.52 72.95 149.03 70.98 148.50 C 69.00 147.98 67.04 147.36 65.07 146.75 C 63.11 146.15 61.15 145.49 59.19 144.87 C 57.23 144.26 55.26 143.64 53.29 143.07 C 51.32 142.50 49.35 141.97 47.37 141.44 C 45.39 140.92 43.40 140.44 41.42 139.92 C 39.44 139.41 37.46 138.92 35.48 138.38 C 33.51 137.83 30.56 136.93 29.58 136.64 " fill="none" stroke="#F3EFE6" stroke-width="3.40" stroke-linecap="round" stroke-linejoin="round"/><path d="M 70.98 148.50 C 70.03 148.14 67.16 147.11 65.31 146.31 C 63.45 145.52 61.64 144.67 59.86 143.75 C 58.08 142.83 56.37 141.80 54.64 140.81 C 52.90 139.81 51.20 138.77 49.45 137.80 C 47.70 136.84 45.92 135.92 44.14 135.00 C 42.36 134.09 40.53 133.25 38.77 132.31 C 37.00 131.37 35.24 130.43 33.55 129.35 C 31.87 128.27 30.25 127.08 28.66 125.84 C 27.08 124.60 25.57 123.22 24.03 121.91 C 22.49 120.59 20.18 118.61 19.41 117.95 " fill="none" stroke="#F3EFE6" stroke-width="2.45" stroke-linecap="round" stroke-linejoin="round"/><path d="M 47.37 141.44 C 47.41 141.64 47.55 142.22 47.62 142.61 C 47.69 143.00 47.84 143.40 47.78 143.76 C 47.72 144.13 47.48 144.46 47.25 144.80 C 47.02 145.13 46.60 145.44 46.40 145.78 C 46.20 146.12 46.07 146.47 46.05 146.85 C 46.04 147.22 46.24 147.63 46.30 148.01 C 46.35 148.40 46.45 148.79 46.38 149.15 C 46.31 149.52 45.96 150.02 45.88 150.20 " fill="none" stroke="#F3EFE6" stroke-width="1.87" stroke-linecap="round" stroke-linejoin="round"/><path d="M 120.00 152.00 C 119.09 151.58 116.35 150.36 114.55 149.50 C 112.75 148.64 110.97 147.75 109.21 146.84 C 107.45 145.92 105.71 144.97 103.98 144.00 C 102.26 143.03 100.55 142.02 98.85 141.02 C 97.15 140.01 95.46 138.98 93.76 137.97 C 92.07 136.95 90.38 135.92 88.68 134.91 C 86.98 133.91 85.27 132.91 83.55 131.93 C 81.83 130.94 80.10 129.98 78.37 129.02 C 76.64 128.06 74.89 127.13 73.15 126.18 C 71.41 125.23 69.66 124.29 67.93 123.32 C 66.20 122.36 64.48 121.39 62.78 120.38 C 61.08 119.36 59.40 118.33 57.75 117.24 C 56.10 116.15 54.48 115.02 52.89 113.84 C 51.30 112.66 49.75 111.43 48.22 110.17 C 46.69 108.90 45.19 107.58 43.71 106.25 C 42.23 104.91 40.77 103.53 39.31 102.16 C 37.86 100.78 36.42 99.38 34.96 98.00 C 33.51 96.62 32.06 95.23 30.59 93.87 C 29.12 92.51 26.89 90.52 26.15 89.85 " fill="none" stroke="#F3EFE6" stroke-width="3.40" stroke-linecap="round" stroke-linejoin="round"/><path d="M 67.93 123.32 C 66.88 123.30 63.72 123.27 61.62 123.18 C 59.53 123.09 57.42 123.06 55.37 122.78 C 53.31 122.51 51.30 122.02 49.30 121.51 C 47.29 121.00 45.33 120.28 43.33 119.73 C 41.34 119.18 39.33 118.67 37.32 118.21 C 35.30 117.76 33.25 117.47 31.23 117.00 C 29.22 116.52 27.21 116.03 25.24 115.38 C 23.26 114.72 20.36 113.46 19.38 113.08 " fill="none" stroke="#F3EFE6" stroke-width="2.45" stroke-linecap="round" stroke-linejoin="round"/><path d="M 43.71 106.25 C 43.24 106.55 41.87 107.51 40.91 108.04 C 39.95 108.57 38.99 109.08 37.97 109.44 C 36.95 109.79 35.85 109.92 34.79 110.16 C 33.73 110.40 32.64 110.53 31.61 110.85 C 30.58 111.17 29.60 111.65 28.61 112.09 C 27.62 112.54 26.69 113.14 25.68 113.53 C 24.68 113.92 23.64 114.22 22.57 114.43 C 21.51 114.65 19.83 114.75 19.28 114.82 " fill="none" stroke="#F3EFE6" stroke-width="1.87" stroke-linecap="round" stroke-linejoin="round"/><path d="M 120.00 152.00 C 119.33 151.25 117.30 149.02 115.99 147.50 C 114.67 145.98 113.39 144.44 112.13 142.89 C 110.86 141.35 109.63 139.77 108.40 138.20 C 107.18 136.63 105.98 135.03 104.76 133.45 C 103.55 131.87 102.35 130.27 101.13 128.69 C 99.91 127.12 98.69 125.54 97.44 123.98 C 96.20 122.42 94.93 120.87 93.66 119.33 C 92.38 117.79 91.08 116.26 89.78 114.73 C 88.48 113.21 87.16 111.69 85.87 110.17 C 84.57 108.64 83.27 107.11 82.01 105.56 C 80.75 104.01 79.50 102.45 78.31 100.85 C 77.12 99.25 75.96 97.64 74.85 95.98 C 73.75 94.32 72.70 92.63 71.70 90.91 C 70.69 89.19 69.75 87.43 68.83 85.65 C 67.92 83.87 67.06 82.05 66.21 80.23 C 65.36 78.40 64.55 76.55 63.73 74.71 C 62.92 72.86 62.12 71.00 61.30 69.16 C 60.49 67.31 59.67 65.46 58.83 63.64 C 57.99 61.81 57.13 59.99 56.26 58.18 C 55.38 56.37 54.48 54.58 53.58 52.80 C 52.67 51.01 51.28 48.35 50.82 47.46 " fill="none" stroke="#F3EFE6" stroke-width="3.40" stroke-linecap="round" stroke-linejoin="round"/><path d="M 78.31 100.85 C 77.46 100.32 74.95 98.72 73.24 97.69 C 71.53 96.66 69.75 95.71 68.05 94.67 C 66.34 93.64 64.63 92.61 63.02 91.46 C 61.42 90.30 59.90 89.05 58.43 87.74 C 56.97 86.42 55.62 84.97 54.24 83.55 C 52.86 82.13 51.55 80.64 50.17 79.23 C 48.79 77.82 47.38 76.43 45.96 75.06 C 44.53 73.70 43.05 72.40 41.63 71.04 C 40.20 69.68 38.77 68.33 37.41 66.89 C 36.05 65.45 34.12 63.16 33.46 62.41 " fill="none" stroke="#F3EFE6" stroke-width="2.45" stroke-linecap="round" stroke-linejoin="round"/><path d="M 120.00 152.00 C 119.57 151.07 118.30 148.29 117.42 146.44 C 116.54 144.60 115.63 142.76 114.72 140.92 C 113.81 139.08 112.88 137.26 111.96 135.42 C 111.03 133.59 110.10 131.76 109.19 129.92 C 108.28 128.08 107.38 126.25 106.52 124.39 C 105.66 122.54 104.82 120.68 104.03 118.81 C 103.24 116.93 102.49 115.05 101.79 113.14 C 101.10 111.24 100.45 109.33 99.84 107.40 C 99.23 105.47 98.68 103.52 98.15 101.56 C 97.62 99.61 97.15 97.64 96.68 95.67 C 96.21 93.69 95.78 91.71 95.34 89.73 C 94.90 87.75 94.49 85.76 94.06 83.77 C 93.62 81.79 93.19 79.80 92.75 77.83 C 92.30 75.85 91.85 73.87 91.38 71.90 C 90.91 69.92 90.43 67.95 89.95 65.99 C 89.46 64.02 88.97 62.05 88.48 60.09 C 88.00 58.12 87.51 56.15 87.04 54.18 C 86.58 52.21 86.12 50.23 85.69 48.24 C 85.27 46.26 84.86 44.27 84.49 42.26 C 84.12 40.26 83.77 38.25 83.45 36.23 C 83.13 34.21 82.71 31.17 82.56 30.16 " fill="none" stroke="#F3EFE6" stroke-width="3.40" stroke-linecap="round" stroke-linejoin="round"/><path d="M 95.34 89.73 C 95.44 88.77 95.77 85.90 95.92 83.98 C 96.07 82.05 96.16 80.11 96.26 78.17 C 96.37 76.24 96.40 74.28 96.56 72.36 C 96.71 70.43 96.87 68.51 97.18 66.62 C 97.49 64.73 97.91 62.86 98.40 61.01 C 98.90 59.17 99.55 57.35 100.17 55.53 C 100.80 53.72 101.52 51.92 102.16 50.11 C 102.81 48.29 103.44 46.48 104.04 44.65 C 104.63 42.83 105.16 40.99 105.73 39.15 C 106.29 37.32 106.81 35.48 107.42 33.66 C 108.02 31.83 109.04 29.12 109.36 28.22 " fill="none" stroke="#F3EFE6" stroke-width="2.45" stroke-linecap="round" stroke-linejoin="round"/><path d="M 88.48 60.09 C 88.14 59.65 87.18 58.30 86.44 57.47 C 85.69 56.64 84.78 55.91 84.00 55.09 C 83.23 54.28 82.39 53.50 81.78 52.59 C 81.16 51.68 80.73 50.66 80.32 49.62 C 79.91 48.59 79.70 47.43 79.32 46.38 C 78.94 45.32 78.54 44.28 78.05 43.30 C 77.56 42.31 76.90 41.42 76.37 40.46 C 75.84 39.50 75.11 38.01 74.86 37.52 " fill="none" stroke="#F3EFE6" stroke-width="1.87" stroke-linecap="round" stroke-linejoin="round"/><path d="M 120.00 152.00 C 120.17 151.03 120.69 148.11 121.05 146.16 C 121.41 144.22 121.80 142.27 122.17 140.33 C 122.54 138.38 122.92 136.43 123.28 134.49 C 123.63 132.54 123.98 130.60 124.28 128.65 C 124.59 126.70 124.87 124.75 125.10 122.81 C 125.33 120.86 125.53 118.91 125.68 116.96 C 125.83 115.01 125.94 113.06 126.01 111.11 C 126.08 109.16 126.11 107.20 126.11 105.25 C 126.12 103.30 126.08 101.34 126.04 99.39 C 126.00 97.44 125.94 95.48 125.88 93.53 C 125.82 91.57 125.76 89.62 125.70 87.67 C 125.65 85.71 125.60 83.76 125.56 81.80 C 125.52 79.85 125.50 77.90 125.48 75.94 C 125.46 73.99 125.45 72.04 125.44 70.09 C 125.43 68.13 125.42 66.18 125.40 64.23 C 125.38 62.27 125.35 60.32 125.30 58.36 C 125.24 56.41 125.17 54.46 125.06 52.50 C 124.95 50.55 124.82 48.59 124.65 46.64 C 124.48 44.68 124.27 42.72 124.04 40.76 C 123.82 38.81 123.55 36.85 123.27 34.89 C 123.00 32.93 122.55 29.99 122.40 29.02 " fill="none" stroke="#F3EFE6" stroke-width="3.40" stroke-linecap="round" stroke-linejoin="round"/><path d="M 125.70 87.67 C 126.13 86.78 127.41 84.11 128.28 82.33 C 129.15 80.56 130.01 78.78 130.93 77.03 C 131.85 75.27 132.83 73.53 133.79 71.79 C 134.75 70.05 135.77 68.33 136.69 66.58 C 137.61 64.82 138.52 63.06 139.29 61.25 C 140.06 59.44 140.73 57.59 141.30 55.71 C 141.87 53.83 142.30 51.89 142.73 49.96 C 143.16 48.02 143.49 46.05 143.88 44.10 C 144.28 42.15 144.66 40.20 145.10 38.27 C 145.54 36.34 146.03 34.43 146.52 32.51 C 147.00 30.59 147.75 27.73 147.99 26.77 " fill="none" stroke="#F3EFE6" stroke-width="2.45" stroke-linecap="round" stroke-linejoin="round"/><path d="M 125.30 58.36 C 124.84 57.77 123.40 56.03 122.55 54.80 C 121.71 53.57 121.03 52.24 120.23 50.98 C 119.43 49.73 118.63 48.47 117.73 47.27 C 116.83 46.08 115.77 44.98 114.83 43.80 C 113.89 42.63 112.87 41.50 112.09 40.23 C 111.31 38.97 110.70 37.60 110.13 36.20 C 109.56 34.81 109.20 33.29 108.69 31.86 C 108.17 30.44 107.31 28.35 107.04 27.65 " fill="none" stroke="#F3EFE6" stroke-width="1.87" stroke-linecap="round" stroke-linejoin="round"/><path d="M 120.00 152.00 C 120.50 151.15 122.00 148.58 123.02 146.89 C 124.05 145.19 125.11 143.51 126.16 141.82 C 127.22 140.13 128.30 138.46 129.35 136.77 C 130.41 135.09 131.47 133.41 132.49 131.71 C 133.51 130.01 134.52 128.30 135.48 126.58 C 136.43 124.85 137.36 123.11 138.23 121.35 C 139.09 119.59 139.91 117.81 140.69 116.01 C 141.47 114.21 142.19 112.39 142.89 110.56 C 143.59 108.73 144.24 106.87 144.88 105.02 C 145.52 103.17 146.13 101.30 146.76 99.44 C 147.38 97.57 147.99 95.71 148.62 93.85 C 149.25 91.99 149.89 90.13 150.55 88.29 C 151.21 86.44 151.88 84.60 152.57 82.76 C 153.26 80.93 153.98 79.10 154.69 77.28 C 155.39 75.45 156.12 73.63 156.82 71.80 C 157.53 69.97 158.23 68.14 158.90 66.30 C 159.57 64.46 160.23 62.61 160.84 60.74 C 161.46 58.88 162.04 57.00 162.59 55.10 C 163.13 53.21 163.64 51.30 164.12 49.38 C 164.61 47.46 165.05 45.52 165.49 43.59 C 165.93 41.65 166.55 38.73 166.77 37.76 " fill="none" stroke="#F3EFE6" stroke-width="3.40" stroke-linecap="round" stroke-linejoin="round"/><path d="M 148.62 93.85 C 149.40 93.17 151.74 91.16 153.27 89.78 C 154.80 88.41 156.26 86.97 157.78 85.59 C 159.31 84.21 160.84 82.84 162.41 81.50 C 163.98 80.16 165.62 78.89 167.20 77.56 C 168.78 76.24 170.40 74.95 171.89 73.54 C 173.38 72.12 174.81 70.66 176.13 69.09 C 177.45 67.53 178.64 65.83 179.82 64.14 C 180.99 62.44 182.06 60.63 183.19 58.90 C 184.33 57.16 185.45 55.41 186.63 53.71 C 187.81 52.01 189.67 49.55 190.28 48.72 " fill="none" stroke="#F3EFE6" stroke-width="2.45" stroke-linecap="round" stroke-linejoin="round"/><path d="M 158.90 66.30 C 159.53 66.00 161.41 65.11 162.67 64.52 C 163.93 63.93 165.27 63.46 166.46 62.78 C 167.65 62.09 168.76 61.30 169.81 60.42 C 170.85 59.55 171.75 58.46 172.74 57.51 C 173.72 56.55 174.69 55.56 175.74 54.69 C 176.80 53.82 177.96 53.10 179.06 52.30 C 180.16 51.50 181.31 50.77 182.35 49.88 C 183.39 48.99 184.80 47.45 185.28 46.96 " fill="none" stroke="#F3EFE6" stroke-width="1.87" stroke-linecap="round" stroke-linejoin="round"/><path d="M 120.00 152.00 C 120.77 151.36 123.09 149.45 124.63 148.17 C 126.17 146.89 127.70 145.60 129.24 144.32 C 130.78 143.04 132.32 141.76 133.87 140.49 C 135.42 139.22 136.98 137.96 138.56 136.72 C 140.13 135.47 141.72 134.24 143.32 133.01 C 144.91 131.78 146.52 130.57 148.12 129.35 C 149.73 128.13 151.34 126.93 152.93 125.70 C 154.52 124.47 156.11 123.24 157.67 121.97 C 159.22 120.71 160.76 119.43 162.26 118.11 C 163.76 116.78 165.23 115.44 166.65 114.04 C 168.08 112.65 169.46 111.22 170.81 109.75 C 172.15 108.28 173.45 106.77 174.73 105.23 C 176.00 103.69 177.23 102.11 178.45 100.52 C 179.67 98.92 180.85 97.30 182.04 95.67 C 183.22 94.05 184.39 92.41 185.57 90.77 C 186.74 89.14 187.92 87.50 189.10 85.88 C 190.29 84.25 191.48 82.64 192.69 81.03 C 193.90 79.43 195.12 77.84 196.35 76.26 C 197.58 74.67 198.82 73.11 200.06 71.53 C 201.30 69.96 202.55 68.40 203.79 66.83 C 205.03 65.25 206.87 62.88 207.49 62.09 " fill="none" stroke="#F3EFE6" stroke-width="3.40" stroke-linecap="round" stroke-linejoin="round"/><path d="M 170.81 109.75 C 171.75 109.36 174.58 108.19 176.45 107.38 C 178.32 106.58 180.25 105.86 182.03 104.92 C 183.81 103.98 185.50 102.88 187.14 101.72 C 188.78 100.56 190.28 99.19 191.87 97.96 C 193.46 96.73 195.05 95.49 196.69 94.33 C 198.33 93.18 200.07 92.16 201.73 91.03 C 203.38 89.89 205.05 88.78 206.62 87.52 C 208.19 86.25 210.39 84.12 211.15 83.44 " fill="none" stroke="#F3EFE6" stroke-width="2.45" stroke-linecap="round" stroke-linejoin="round"/><path d="M 120.00 152.00 C 120.99 151.86 123.94 151.41 125.91 151.14 C 127.89 150.88 129.88 150.66 131.86 150.41 C 133.84 150.15 135.83 149.92 137.80 149.63 C 139.77 149.34 141.73 149.03 143.67 148.65 C 145.61 148.27 147.54 147.84 149.44 147.34 C 151.35 146.84 153.23 146.27 155.10 145.67 C 156.97 145.06 158.82 144.39 160.67 143.71 C 162.52 143.03 164.35 142.30 166.19 141.60 C 168.03 140.91 169.87 140.19 171.71 139.52 C 173.56 138.84 175.42 138.19 177.28 137.56 C 179.15 136.94 181.02 136.35 182.90 135.78 C 184.78 135.20 186.67 134.66 188.55 134.09 C 190.44 133.52 192.32 132.97 194.19 132.36 C 196.06 131.75 197.93 131.13 199.77 130.44 C 201.62 129.76 203.45 129.03 205.26 128.24 C 207.08 127.45 208.87 126.60 210.66 125.73 C 212.45 124.86 214.21 123.93 215.99 123.01 C 217.76 122.10 220.41 120.70 221.30 120.23 " fill="none" stroke="#F3EFE6" stroke-width="3.40" stroke-linecap="round" stroke-linejoin="round"/><path d="M 177.28 137.56 C 177.64 137.85 178.68 138.79 179.44 139.27 C 180.21 139.74 181.06 140.06 181.89 140.42 C 182.72 140.78 183.62 141.01 184.42 141.42 C 185.22 141.84 185.97 142.35 186.70 142.90 C 187.43 143.45 188.06 144.18 188.80 144.72 C 189.53 145.26 190.28 145.77 191.11 146.13 C 191.94 146.49 192.87 146.64 193.77 146.88 C 194.66 147.12 196.02 147.43 196.47 147.55 " fill="none" stroke="#F3EFE6" stroke-width="2.45" stroke-linecap="round" stroke-linejoin="round"/><path d="M 199.77 130.44 C 199.83 130.68 200.08 131.34 200.12 131.83 C 200.16 132.32 200.02 132.88 200.01 133.39 C 200.00 133.90 199.93 134.43 200.09 134.88 C 200.24 135.33 200.58 135.71 200.92 136.09 C 201.26 136.47 201.80 136.77 202.13 137.16 C 202.47 137.54 202.75 137.94 202.93 138.38 C 203.11 138.82 203.10 139.32 203.23 139.78 C 203.36 140.24 203.62 140.90 203.70 141.13 " fill="none" stroke="#F3EFE6" stroke-width="1.87" stroke-linecap="round" stroke-linejoin="round"/><path d="M 120.00 152.00 C 120.99 152.13 123.97 152.53 125.95 152.76 C 127.94 153.00 129.93 153.15 131.91 153.42 C 133.89 153.69 135.87 153.98 137.85 154.37 C 139.83 154.75 141.80 155.26 143.78 155.73 C 145.75 156.19 147.72 156.76 149.70 157.17 C 151.68 157.57 153.66 157.95 155.65 158.13 C 157.63 158.30 159.63 158.32 161.63 158.22 C 163.63 158.12 165.63 157.81 167.64 157.52 C 169.65 157.24 171.66 156.81 173.67 156.50 C 175.68 156.20 177.69 155.89 179.69 155.69 C 181.69 155.49 183.69 155.40 185.69 155.29 C 187.69 155.19 190.69 155.12 191.69 155.08 " fill="none" stroke="#F3EFE6" stroke-width="3.40" stroke-linecap="round" stroke-linejoin="round"/></svg>